<?xml version="1.0" encoding="UTF-8" standalone="no"?>
<!DOCTYPE svg PUBLIC "-//W3C//DTD SVG 1.1//EN"
 "http://www.w3.org/Graphics/SVG/1.1/DTD/svg11.dtd">
<!-- Generated by graphviz version 5.0.0 (20220707.1540)
 -->
<!-- Title: dependencies Pages: 1 -->
<svg width="1377pt" height="247pt"
 viewBox="0.00 0.00 1377.00 246.80" xmlns="http://www.w3.org/2000/svg" xmlns:xlink="http://www.w3.org/1999/xlink">
<g id="graph0" class="graph" transform="scale(1 1) rotate(0) translate(4 242.8)">
<title>dependencies</title>
<polygon fill="white" stroke="transparent" points="-4,4 -4,-242.8 1373,-242.8 1373,4 -4,4"/>
<text text-anchor="middle" x="684.5" y="-8.2" font-family="sans-serif" font-size="14.00">dependencies</text>
<g id="clust1" class="cluster">
<title>cluster_AppModule</title>
<polygon fill="none" stroke="black" stroke-dasharray="1,5" points="8,-32.8 8,-230.8 1361,-230.8 1361,-32.8 8,-32.8"/>
</g>
<g id="clust2" class="cluster">
<title>cluster_AppModule_declarations</title>
<polygon fill="none" stroke="black" points="168,-40.8 168,-92.8 1353,-92.8 1353,-40.8 168,-40.8"/>
</g>
<g id="clust11" class="cluster">
<title>cluster_AppModule_imports</title>
<polygon fill="none" stroke="black" points="16,-40.8 16,-92.8 160,-92.8 160,-40.8 16,-40.8"/>
</g>
<g id="clust13" class="cluster">
<title>cluster_AppModule_bootstrap</title>
<polygon fill="none" stroke="black" points="615,-170.8 615,-222.8 739,-222.8 739,-170.8 615,-170.8"/>
</g>
<!-- AdventureInfoComponent -->
<g id="node1" class="node">
<title>AdventureInfoComponent</title>
<polygon fill="#ffffb3" stroke="black" points="1344.75,-84.8 1181.25,-84.8 1181.25,-48.8 1344.75,-48.8 1344.75,-84.8"/>
<text text-anchor="middle" x="1263" y="-62.6" font-family="Times,serif" font-size="14.00">AdventureInfoComponent</text>
</g>
<!-- AppModule -->
<g id="node9" class="node">
<title>AppModule</title>
<polygon fill="#8dd3c7" stroke="black" points="718.66,-149.8 715.66,-153.8 694.66,-153.8 691.66,-149.8 635.34,-149.8 635.34,-113.8 718.66,-113.8 718.66,-149.8"/>
<text text-anchor="middle" x="677" y="-127.6" font-family="Times,serif" font-size="14.00">AppModule</text>
</g>
<!-- AdventureInfoComponent&#45;&gt;AppModule -->
<g id="edge1" class="edge">
<title>AdventureInfoComponent&#45;&gt;AppModule</title>
<path fill="none" stroke="black" d="M1263,-84.81C1263,-107.29 1263,-142.8 1263,-142.8 1263,-142.8 728.67,-142.8 728.67,-142.8"/>
<polygon fill="black" stroke="black" points="728.67,-139.3 718.67,-142.8 728.67,-146.3 728.67,-139.3"/>
</g>
<!-- AdventuresComponent -->
<g id="node2" class="node">
<title>AdventuresComponent</title>
<polygon fill="#ffffb3" stroke="black" points="1162.87,-84.8 1017.13,-84.8 1017.13,-48.8 1162.87,-48.8 1162.87,-84.8"/>
<text text-anchor="middle" x="1090" y="-62.6" font-family="Times,serif" font-size="14.00">AdventuresComponent</text>
</g>
<!-- AdventuresComponent&#45;&gt;AppModule -->
<g id="edge2" class="edge">
<title>AdventuresComponent&#45;&gt;AppModule</title>
<path fill="none" stroke="black" d="M1090,-84.93C1090,-105.37 1090,-135.8 1090,-135.8 1090,-135.8 728.87,-135.8 728.87,-135.8"/>
<polygon fill="black" stroke="black" points="728.87,-132.3 718.87,-135.8 728.87,-139.3 728.87,-132.3"/>
</g>
<!-- AppComponent -->
<g id="node3" class="node">
<title>AppComponent</title>
<polygon fill="#ffffb3" stroke="black" points="998.94,-84.8 893.06,-84.8 893.06,-48.8 998.94,-48.8 998.94,-84.8"/>
<text text-anchor="middle" x="946" y="-62.6" font-family="Times,serif" font-size="14.00">AppComponent</text>
</g>
<!-- AppComponent&#45;&gt;AppModule -->
<g id="edge3" class="edge">
<title>AppComponent&#45;&gt;AppModule</title>
<path fill="none" stroke="black" d="M946,-85.07C946,-103.36 946,-128.8 946,-128.8 946,-128.8 728.74,-128.8 728.74,-128.8"/>
<polygon fill="black" stroke="black" points="728.74,-125.3 718.74,-128.8 728.74,-132.3 728.74,-125.3"/>
</g>
<!-- HeaderComponent -->
<g id="node4" class="node">
<title>HeaderComponent</title>
<polygon fill="#ffffb3" stroke="black" points="874.75,-84.8 753.25,-84.8 753.25,-48.8 874.75,-48.8 874.75,-84.8"/>
<text text-anchor="middle" x="814" y="-62.6" font-family="Times,serif" font-size="14.00">HeaderComponent</text>
</g>
<!-- HeaderComponent&#45;&gt;AppModule -->
<g id="edge4" class="edge">
<title>HeaderComponent&#45;&gt;AppModule</title>
<path fill="none" stroke="black" d="M814,-84.81C814,-100.85 814,-121.8 814,-121.8 814,-121.8 728.85,-121.8 728.85,-121.8"/>
<polygon fill="black" stroke="black" points="728.85,-118.3 718.85,-121.8 728.85,-125.3 728.85,-118.3"/>
</g>
<!-- HomeComponent -->
<g id="node5" class="node">
<title>HomeComponent</title>
<polygon fill="#ffffb3" stroke="black" points="734.55,-84.8 619.45,-84.8 619.45,-48.8 734.55,-48.8 734.55,-84.8"/>
<text text-anchor="middle" x="677" y="-62.6" font-family="Times,serif" font-size="14.00">HomeComponent</text>
</g>
<!-- HomeComponent&#45;&gt;AppModule -->
<g id="edge5" class="edge">
<title>HomeComponent&#45;&gt;AppModule</title>
<path fill="none" stroke="black" d="M677,-84.91C677,-84.91 677,-103.79 677,-103.79"/>
<polygon fill="black" stroke="black" points="673.5,-103.79 677,-113.79 680.5,-103.79 673.5,-103.79"/>
</g>
<!-- SettingsComponent -->
<g id="node6" class="node">
<title>SettingsComponent</title>
<polygon fill="#ffffb3" stroke="black" points="601.45,-84.8 474.55,-84.8 474.55,-48.8 601.45,-48.8 601.45,-84.8"/>
<text text-anchor="middle" x="538" y="-62.6" font-family="Times,serif" font-size="14.00">SettingsComponent</text>
</g>
<!-- SettingsComponent&#45;&gt;AppModule -->
<g id="edge6" class="edge">
<title>SettingsComponent&#45;&gt;AppModule</title>
<path fill="none" stroke="black" d="M538,-84.81C538,-100.85 538,-121.8 538,-121.8 538,-121.8 625.3,-121.8 625.3,-121.8"/>
<polygon fill="black" stroke="black" points="625.3,-125.3 635.3,-121.8 625.3,-118.3 625.3,-125.3"/>
</g>
<!-- StatisticsComponent -->
<g id="node7" class="node">
<title>StatisticsComponent</title>
<polygon fill="#ffffb3" stroke="black" points="456.89,-84.8 325.11,-84.8 325.11,-48.8 456.89,-48.8 456.89,-84.8"/>
<text text-anchor="middle" x="391" y="-62.6" font-family="Times,serif" font-size="14.00">StatisticsComponent</text>
</g>
<!-- StatisticsComponent&#45;&gt;AppModule -->
<g id="edge7" class="edge">
<title>StatisticsComponent&#45;&gt;AppModule</title>
<path fill="none" stroke="black" d="M391,-85.07C391,-103.36 391,-128.8 391,-128.8 391,-128.8 625.11,-128.8 625.11,-128.8"/>
<polygon fill="black" stroke="black" points="625.11,-132.3 635.11,-128.8 625.11,-125.3 625.11,-132.3"/>
</g>
<!-- UserInfoComponent -->
<g id="node8" class="node">
<title>UserInfoComponent</title>
<polygon fill="#ffffb3" stroke="black" points="307.59,-84.8 176.41,-84.8 176.41,-48.8 307.59,-48.8 307.59,-84.8"/>
<text text-anchor="middle" x="242" y="-62.6" font-family="Times,serif" font-size="14.00">UserInfoComponent</text>
</g>
<!-- UserInfoComponent&#45;&gt;AppModule -->
<g id="edge8" class="edge">
<title>UserInfoComponent&#45;&gt;AppModule</title>
<path fill="none" stroke="black" d="M242,-84.93C242,-105.37 242,-135.8 242,-135.8 242,-135.8 625.29,-135.8 625.29,-135.8"/>
<polygon fill="black" stroke="black" points="625.29,-139.3 635.29,-135.8 625.29,-132.3 625.29,-139.3"/>
</g>
<!-- AppComponent  -->
<g id="node11" class="node">
<title>AppComponent </title>
<polygon fill="#80b1d3" stroke="black" points="731.44,-214.8 622.56,-214.8 622.56,-178.8 731.44,-178.8 731.44,-214.8"/>
<text text-anchor="middle" x="677" y="-192.6" font-family="Times,serif" font-size="14.00">AppComponent </text>
</g>
<!-- AppModule&#45;&gt;AppComponent  -->
<g id="edge10" class="edge">
<title>AppModule&#45;&gt;AppComponent </title>
<path fill="none" stroke="black" stroke-dasharray="1,5" d="M677,-149.91C677,-149.91 677,-168.79 677,-168.79"/>
<polygon fill="black" stroke="black" points="673.5,-168.79 677,-178.79 680.5,-168.79 673.5,-168.79"/>
</g>
<!-- AppRoutingModule -->
<g id="node10" class="node">
<title>AppRoutingModule</title>
<polygon fill="#8dd3c7" stroke="black" points="152.28,-84.8 149.28,-88.8 128.28,-88.8 125.28,-84.8 23.72,-84.8 23.72,-48.8 152.28,-48.8 152.28,-84.8"/>
<text text-anchor="middle" x="88" y="-62.6" font-family="Times,serif" font-size="14.00">AppRoutingModule</text>
</g>
<!-- AppRoutingModule&#45;&gt;AppModule -->
<g id="edge9" class="edge">
<title>AppRoutingModule&#45;&gt;AppModule</title>
<path fill="none" stroke="black" d="M88,-84.81C88,-107.29 88,-142.8 88,-142.8 88,-142.8 625.11,-142.8 625.11,-142.8"/>
<polygon fill="black" stroke="black" points="625.11,-146.3 635.11,-142.8 625.11,-139.3 625.11,-146.3"/>
</g>
</g>
</svg>
